<svg width="50" height="49" viewBox="0 0 50 49" fill="none" xmlns="http://www.w3.org/2000/svg">
<g id="group">
<g id="clouds" filter="url(#filter0_i_16_845)">
<path d="M42.7006 16.1018C42.746 15.8453 42.7696 15.5814 42.7696 15.3121C42.7696 12.7925 40.7008 10.75 38.1488 10.75C36.2515 10.75 34.6214 11.8788 33.9097 13.4933C33.3332 13.0019 32.5851 12.7052 31.7676 12.7052C29.9447 12.7052 28.4669 14.1803 28.4669 16C28.4669 16.1013 28.4715 16.2016 28.4805 16.3006C27.6037 16.7246 27 17.6142 27 18.6431C27 20.0829 28.1822 21.25 29.6405 21.25H42.1095C43.5678 21.25 44.75 20.0829 44.75 18.6431C44.75 17.404 43.8743 16.3668 42.7006 16.1018Z" fill="url(#paint0_linear_16_845)"/>
</g>
<g id="Rectangle 9" filter="url(#filter1_f_16_845)">
<rect x="10" y="10.25" width="30" height="28.25" rx="11.75" fill="#FFEF9A"/>
</g>
<g id="Ellipse 13" filter="url(#filter2_i_16_845)">
<path d="M38.25 24.375C38.25 31.7618 32.3178 37.75 25 37.75C17.6822 37.75 11.75 31.7618 11.75 24.375C11.75 16.9882 17.6822 11 25 11C32.3178 11 38.25 16.9882 38.25 24.375Z" fill="url(#paint1_linear_16_845)"/>
</g>
<g id="clouds_2" filter="url(#filter3_i_16_845)">
<path d="M22.9506 34.6018C22.996 34.3453 23.0196 34.0814 23.0196 33.8121C23.0196 31.2925 20.9508 29.25 18.3988 29.25C16.5015 29.25 14.8714 30.3788 14.1597 31.9933C13.5832 31.5019 12.8351 31.2052 12.0176 31.2052C10.1947 31.2052 8.71694 32.6803 8.71694 34.5C8.71694 34.6013 8.72152 34.7016 8.73049 34.8006C7.85372 35.2246 7.25 36.1142 7.25 37.1431C7.25 38.5829 8.43219 39.75 9.8905 39.75H22.3595C23.8178 39.75 25 38.5829 25 37.1431C25 35.904 24.1243 34.8668 22.9506 34.6018Z" fill="url(#paint2_linear_16_845)"/>
</g>
</g>
<defs>
<filter id="filter0_i_16_845" x="27" y="10.75" width="17.75" height="11.75" filterUnits="userSpaceOnUse" color-interpolation-filters="sRGB">
<feFlood flood-opacity="0" result="BackgroundImageFix"/>
<feBlend mode="normal" in="SourceGraphic" in2="BackgroundImageFix" result="shape"/>
<feColorMatrix in="SourceAlpha" type="matrix" values="0 0 0 0 0 0 0 0 0 0 0 0 0 0 0 0 0 0 127 0" result="hardAlpha"/>
<feOffset dy="1.375"/>
<feGaussianBlur stdDeviation="0.625"/>
<feComposite in2="hardAlpha" operator="arithmetic" k2="-1" k3="1"/>
<feColorMatrix type="matrix" values="0 0 0 0 1 0 0 0 0 1 0 0 0 0 1 0 0 0 1 0"/>
<feBlend mode="normal" in2="shape" result="effect1_innerShadow_16_845"/>
</filter>
<filter id="filter1_f_16_845" x="0.375" y="0.625" width="49.25" height="47.5" filterUnits="userSpaceOnUse" color-interpolation-filters="sRGB">
<feFlood flood-opacity="0" result="BackgroundImageFix"/>
<feBlend mode="normal" in="SourceGraphic" in2="BackgroundImageFix" result="shape"/>
<feGaussianBlur stdDeviation="4.8125" result="effect1_foregroundBlur_16_845"/>
</filter>
<filter id="filter2_i_16_845" x="11.75" y="11" width="26.5" height="27.375" filterUnits="userSpaceOnUse" color-interpolation-filters="sRGB">
<feFlood flood-opacity="0" result="BackgroundImageFix"/>
<feBlend mode="normal" in="SourceGraphic" in2="BackgroundImageFix" result="shape"/>
<feColorMatrix in="SourceAlpha" type="matrix" values="0 0 0 0 0 0 0 0 0 0 0 0 0 0 0 0 0 0 127 0" result="hardAlpha"/>
<feOffset dy="0.625"/>
<feGaussianBlur stdDeviation="1.125"/>
<feComposite in2="hardAlpha" operator="arithmetic" k2="-1" k3="1"/>
<feColorMatrix type="matrix" values="0 0 0 0 1 0 0 0 0 1 0 0 0 0 1 0 0 0 0.81 0"/>
<feBlend mode="normal" in2="shape" result="effect1_innerShadow_16_845"/>
</filter>
<filter id="filter3_i_16_845" x="7.25" y="29.25" width="17.75" height="11.75" filterUnits="userSpaceOnUse" color-interpolation-filters="sRGB">
<feFlood flood-opacity="0" result="BackgroundImageFix"/>
<feBlend mode="normal" in="SourceGraphic" in2="BackgroundImageFix" result="shape"/>
<feColorMatrix in="SourceAlpha" type="matrix" values="0 0 0 0 0 0 0 0 0 0 0 0 0 0 0 0 0 0 127 0" result="hardAlpha"/>
<feOffset dy="1.375"/>
<feGaussianBlur stdDeviation="0.625"/>
<feComposite in2="hardAlpha" operator="arithmetic" k2="-1" k3="1"/>
<feColorMatrix type="matrix" values="0 0 0 0 1 0 0 0 0 1 0 0 0 0 1 0 0 0 1 0"/>
<feBlend mode="normal" in2="shape" result="effect1_innerShadow_16_845"/>
</filter>
<linearGradient id="paint0_linear_16_845" x1="28.129" y1="20.3125" x2="45.9904" y2="6.90831" gradientUnits="userSpaceOnUse">
<stop stop-color="white"/>
<stop offset="1" stop-color="white" stop-opacity="0.58"/>
</linearGradient>
<linearGradient id="paint1_linear_16_845" x1="22.9873" y1="31.6551" x2="34.0445" y2="12.4438" gradientUnits="userSpaceOnUse">
<stop stop-color="#FF9900"/>
<stop offset="1" stop-color="#FFEE94"/>
</linearGradient>
<linearGradient id="paint2_linear_16_845" x1="8.37898" y1="38.8125" x2="26.2404" y2="25.4083" gradientUnits="userSpaceOnUse">
<stop stop-color="white"/>
<stop offset="1" stop-color="white" stop-opacity="0.58"/>
</linearGradient>
</defs>
</svg>
